<?xml version="1.0" standalone="no"?>
<!DOCTYPE svg PUBLIC "-//W3C//DTD SVG 20010904//EN"
 "http://www.w3.org/TR/2001/REC-SVG-20010904/DTD/svg10.dtd">
<svg version="1.0" xmlns="http://www.w3.org/2000/svg"
 width="50.000000pt" height="50.000000pt" viewBox="0 0 50.000000 50.000000"
 preserveAspectRatio="xMidYMid meet">

<g transform="translate(0.000000,50.000000) scale(0.100000,-0.100000)"
fill="#000000" stroke="none">
<path d="M106 446 c-57 -21 -73 -60 -41 -102 11 -14 14 -51 15 -150 0 -87 4
-134 12 -142 17 -17 299 -17 316 0 8 8 12 54 12 143 0 102 3 135 16 153 21 31
14 61 -19 86 -25 18 -45 21 -150 24 -87 1 -133 -2 -161 -12z m307 -35 c21 -21
22 -22 5 -52 -11 -19 -18 -51 -18 -85 0 -47 -2 -54 -20 -54 -11 0 -20 -4 -20
-10 0 -5 9 -10 20 -10 11 0 20 -7 20 -15 0 -8 -9 -15 -20 -15 -11 0 -20 -4
-20 -10 0 -5 9 -10 21 -10 18 0 20 -5 17 -42 l-3 -43 -125 0 -125 0 -3 43 c-3
37 -1 42 17 42 12 0 21 5 21 10 0 6 -9 10 -20 10 -11 0 -20 7 -20 15 0 8 9 15
20 15 11 0 20 5 20 10 0 6 -9 10 -20 10 -18 0 -20 7 -20 55 0 34 -6 65 -16 80
-21 33 -10 63 29 75 18 5 78 8 135 6 91 -2 106 -5 125 -25z m-320 -15 c-3 -14
2 -35 11 -48 13 -18 16 -50 16 -156 0 -86 -4 -131 -10 -127 -6 4 -10 61 -10
137 0 107 -3 135 -16 149 -11 12 -14 27 -10 44 8 32 25 33 19 1z"/>
<path d="M184 279 c-10 -17 13 -36 27 -22 12 12 4 33 -11 33 -5 0 -12 -5 -16
-11z"/>
<path d="M324 279 c-10 -17 13 -36 27 -22 12 12 4 33 -11 33 -5 0 -12 -5 -16
-11z"/>
<path d="M220 210 c0 -11 33 -30 52 -30 19 0 55 27 46 35 -3 3 -15 0 -27 -7
-17 -10 -25 -10 -41 0 -24 15 -30 15 -30 2z"/>
</g>
</svg>
