<?xml version="1.0" standalone="no"?>
<!DOCTYPE svg PUBLIC "-//W3C//DTD SVG 20010904//EN"
 "http://www.w3.org/TR/2001/REC-SVG-20010904/DTD/svg10.dtd">
<svg version="1.0" xmlns="http://www.w3.org/2000/svg"
 width="50.000000pt" height="50.000000pt" viewBox="0 0 50.000000 50.000000"
 preserveAspectRatio="xMidYMid meet">

<g transform="translate(0.000000,50.000000) scale(0.100000,-0.100000)"
fill="#000000" stroke="none">
<path d="M109 451 c-16 -16 -29 -39 -29 -50 0 -12 -6 -21 -14 -21 -22 0 -56
-49 -56 -82 0 -34 48 -88 78 -88 14 0 32 -25 68 -95 l49 -95 45 0 c45 0 45 0
62 48 26 73 74 142 99 142 11 0 34 13 50 29 39 40 39 83 0 119 -17 15 -46 41
-65 59 -42 39 -79 50 -119 35 -25 -10 -34 -8 -55 8 -36 29 -78 26 -113 -9z
m108 -15 c25 -21 31 -22 48 -10 34 25 75 17 111 -21 18 -19 36 -35 40 -35 19
0 54 -46 54 -70 0 -36 -40 -72 -77 -69 -15 2 -38 -2 -50 -9 -27 -15 -60 -16
-68 -2 -4 6 -16 3 -32 -10 -33 -25 -73 -26 -106 0 -14 11 -34 20 -44 20 -11 0
-30 11 -42 24 -32 34 -25 75 16 101 18 11 32 29 33 39 0 27 39 66 66 66 12 0
35 -11 51 -24z m53 -356 c5 0 14 15 20 34 12 38 46 86 61 86 5 0 -1 -17 -14
-37 -13 -21 -30 -56 -39 -78 -13 -34 -20 -40 -49 -43 -33 -3 -35 0 -67 63 -36
74 -37 76 -18 69 7 -3 23 -27 36 -55 13 -27 27 -49 32 -49 4 0 8 26 8 58 0 79
14 89 18 13 2 -34 7 -61 12 -61z m30 103 c0 -5 -5 -15 -10 -23 -8 -12 -10 -11
-10 8 0 12 5 22 10 22 6 0 10 -3 10 -7z m-80 -35 c0 -19 -2 -20 -10 -8 -13 19
-13 30 0 30 6 0 10 -10 10 -22z"/>
<path d="M164 359 c-10 -17 13 -36 27 -22 12 12 4 33 -11 33 -5 0 -12 -5 -16
-11z"/>
<path d="M304 359 c-10 -17 13 -36 27 -22 12 12 4 33 -11 33 -5 0 -12 -5 -16
-11z"/>
<path d="M200 290 c0 -11 33 -30 52 -30 19 0 55 27 46 35 -3 3 -15 0 -27 -7
-17 -10 -25 -10 -41 0 -24 15 -30 15 -30 2z"/>
</g>
</svg>
