<?xml version="1.0" standalone="no"?>
<!DOCTYPE svg PUBLIC "-//W3C//DTD SVG 20010904//EN"
 "http://www.w3.org/TR/2001/REC-SVG-20010904/DTD/svg10.dtd">
<svg version="1.0" xmlns="http://www.w3.org/2000/svg"
 width="50.000000pt" height="50.000000pt" viewBox="0 0 50.000000 50.000000"
 preserveAspectRatio="xMidYMid meet">

<g transform="translate(0.000000,50.000000) scale(0.100000,-0.100000)"
fill="#000000" stroke="none">
<path d="M290 475 c-8 -2 -45 -7 -81 -10 -54 -5 -72 -12 -97 -35 -32 -29 -43
-75 -21 -82 5 -2 19 -70 30 -152 11 -82 22 -153 25 -158 7 -11 201 -11 208 0
3 5 14 76 25 158 11 82 25 150 30 152 17 6 13 50 -6 70 -10 10 -23 27 -29 38
-10 18 -49 27 -84 19z m68 -32 c3 -10 -22 -13 -104 -13 -59 0 -105 2 -102 5 6
7 145 23 177 21 14 0 26 -7 29 -13z m40 -55 c3 -17 -9 -18 -147 -18 -119 0
-151 3 -151 13 0 8 3 17 7 21 4 3 70 5 147 4 125 -3 141 -5 144 -20z m-22 -65
c-3 -16 -8 -52 -11 -80 -6 -43 -10 -53 -26 -53 -10 0 -19 -4 -19 -10 0 -5 7
-10 15 -10 8 0 15 -7 15 -15 0 -8 -9 -15 -20 -15 -11 0 -20 -4 -20 -10 0 -5
10 -10 21 -10 17 0 20 -4 15 -22 -3 -13 -6 -29 -6 -35 0 -10 -25 -13 -90 -13
-65 0 -90 3 -90 13 0 6 -3 22 -6 35 -5 18 -2 22 15 22 11 0 21 5 21 10 0 6 -9
10 -20 10 -11 0 -20 7 -20 15 0 8 7 15 15 15 8 0 15 5 15 10 0 6 -9 10 -19 10
-16 0 -20 10 -26 53 -3 28 -8 64 -11 80 l-6 27 132 0 132 0 -6 -27z"/>
<path d="M164 279 c-10 -17 13 -36 27 -22 12 12 4 33 -11 33 -5 0 -12 -5 -16
-11z"/>
<path d="M304 279 c-10 -17 13 -36 27 -22 12 12 4 33 -11 33 -5 0 -12 -5 -16
-11z"/>
<path d="M200 220 c0 -11 33 -30 52 -30 19 0 55 27 46 35 -3 3 -15 0 -27 -7
-17 -10 -25 -10 -41 0 -24 15 -30 15 -30 2z"/>
</g>
</svg>
