<?xml version="1.0" standalone="no"?>
<!DOCTYPE svg PUBLIC "-//W3C//DTD SVG 20010904//EN"
 "http://www.w3.org/TR/2001/REC-SVG-20010904/DTD/svg10.dtd">
<svg version="1.0" xmlns="http://www.w3.org/2000/svg"
 width="50.000000pt" height="50.000000pt" viewBox="0 0 50.000000 50.000000"
 preserveAspectRatio="xMidYMid meet">

<g transform="translate(0.000000,50.000000) scale(0.100000,-0.100000)"
fill="#000000" stroke="none">
<path d="M163 429 c-18 -5 -33 -16 -33 -23 0 -7 -13 -19 -29 -26 -35 -14 -75
-55 -67 -68 3 -5 -2 -24 -11 -43 -23 -47 -28 -167 -6 -191 9 -10 21 -18 26
-18 6 0 33 22 62 49 58 55 106 69 192 56 39 -6 56 -16 96 -56 53 -54 66 -58
90 -31 22 25 17 160 -7 197 -9 14 -14 30 -10 36 8 14 -31 54 -67 69 -16 7 -29
18 -29 26 0 29 -135 44 -207 23z m155 -15 c13 -4 22 -14 22 -26 0 -13 5 -18
14 -15 16 6 77 -31 83 -49 2 -7 -21 -40 -51 -75 l-55 -63 -81 0 -81 -1 -55 64
c-30 35 -53 69 -51 75 6 19 67 55 83 49 9 -3 14 2 14 15 0 11 8 23 18 25 26 7
114 7 140 1z m-210 -186 c55 -64 45 -80 -29 -43 -30 15 -55 29 -57 30 -6 5 28
65 36 64 4 0 26 -23 50 -51z m357 21 c9 -17 15 -32 13 -34 -19 -17 -112 -55
-119 -48 -9 9 68 111 83 112 4 1 15 -13 23 -30z m-383 -85 l30 -16 -23 -26
c-13 -15 -27 -31 -31 -36 -11 -14 -38 14 -38 39 0 30 10 55 22 55 5 0 23 -7
40 -16z m394 -9 c8 -33 -3 -75 -20 -75 -7 0 -25 16 -40 35 l-26 34 27 15 c40
21 52 20 59 -9z"/>
<path d="M164 329 c-10 -17 13 -36 27 -22 12 12 4 33 -11 33 -5 0 -12 -5 -16
-11z"/>
<path d="M304 329 c-10 -17 13 -36 27 -22 12 12 4 33 -11 33 -5 0 -12 -5 -16
-11z"/>
<path d="M200 260 c0 -11 33 -30 52 -30 19 0 55 27 46 35 -3 3 -15 0 -27 -7
-17 -10 -25 -10 -41 0 -24 15 -30 15 -30 2z"/>
</g>
</svg>
