<?xml version="1.0" standalone="no"?>
<!DOCTYPE svg PUBLIC "-//W3C//DTD SVG 20010904//EN"
 "http://www.w3.org/TR/2001/REC-SVG-20010904/DTD/svg10.dtd">
<svg version="1.0" xmlns="http://www.w3.org/2000/svg"
 width="50.000000pt" height="50.000000pt" viewBox="0 0 50.000000 50.000000"
 preserveAspectRatio="xMidYMid meet">

<g transform="translate(0.000000,50.000000) scale(0.100000,-0.100000)"
fill="#000000" stroke="none">
<path d="M328 443 c-112 -20 -117 -38 -7 -28 94 8 128 16 131 30 4 15 -28 15
-124 -2z"/>
<path d="M169 435 c-7 -79 -4 -105 12 -105 5 0 9 27 9 60 0 33 -4 60 -10 60
-5 0 -11 -7 -11 -15z"/>
<path d="M209 435 c-7 -79 -4 -105 12 -105 5 0 9 27 9 60 0 33 -4 60 -10 60
-5 0 -11 -7 -11 -15z"/>
<path d="M129 428 c-8 -71 -4 -98 12 -98 5 0 9 25 9 55 0 30 -4 55 -10 55 -5
0 -11 -6 -11 -12z"/>
<path d="M90 410 c0 -5 -13 -10 -30 -10 -16 0 -30 -4 -30 -10 0 -5 13 -7 30
-3 19 3 30 1 30 -6 0 -6 -13 -11 -30 -11 -16 0 -30 -4 -30 -10 0 -5 14 -10 30
-10 29 0 30 -2 30 -45 0 -25 5 -45 10 -45 6 0 10 33 10 80 0 47 -4 80 -10 80
-5 0 -10 -4 -10 -10z"/>
<path d="M240 361 c0 -10 83 -21 163 -21 44 0 57 3 57 15 0 12 -19 15 -110 15
-60 0 -110 -4 -110 -9z"/>
<path d="M30 205 c0 -44 18 -80 62 -122 44 -42 76 -53 158 -53 82 0 114 11
158 53 44 42 62 78 62 122 l0 35 -220 0 -220 0 0 -35z m417 -20 c-14 -83 -89
-135 -197 -135 -108 0 -183 52 -197 135 l-6 35 203 0 203 0 -6 -35z"/>
<path d="M164 169 c-10 -17 13 -36 27 -22 12 12 4 33 -11 33 -5 0 -12 -5 -16
-11z"/>
<path d="M304 169 c-10 -17 13 -36 27 -22 12 12 4 33 -11 33 -5 0 -12 -5 -16
-11z"/>
<path d="M200 110 c0 -11 33 -30 52 -30 19 0 55 27 46 35 -3 3 -15 0 -27 -7
-17 -10 -25 -10 -41 0 -24 15 -30 15 -30 2z"/>
</g>
</svg>
