<?xml version="1.0" standalone="no"?>
<!DOCTYPE svg PUBLIC "-//W3C//DTD SVG 20010904//EN"
 "http://www.w3.org/TR/2001/REC-SVG-20010904/DTD/svg10.dtd">
<svg version="1.0" xmlns="http://www.w3.org/2000/svg"
 width="50.000000pt" height="50.000000pt" viewBox="0 0 50.000000 50.000000"
 preserveAspectRatio="xMidYMid meet">

<g transform="translate(0.000000,50.000000) scale(0.100000,-0.100000)"
fill="#000000" stroke="none">
<path d="M230 431 c-74 -24 -158 -84 -189 -135 -15 -24 -21 -50 -21 -93 0 -76
14 -91 69 -74 62 18 89 13 166 -29 79 -43 118 -49 166 -24 43 22 59 68 59 167
0 98 -19 137 -84 170 -42 22 -126 31 -166 18z m145 -30 c50 -23 73 -48 81 -89
6 -28 4 -32 -15 -32 -11 0 -21 -4 -21 -10 0 -5 9 -10 20 -10 13 0 18 -5 14
-15 -4 -8 -17 -15 -30 -15 -13 0 -24 -4 -24 -10 0 -5 10 -10 22 -10 21 0 21
-1 -7 -30 -41 -43 -80 -40 -163 11 -60 37 -71 40 -112 34 -76 -11 -93 -10 -97
3 -3 7 5 12 21 12 14 0 26 5 26 10 0 6 -9 10 -21 10 -27 0 -19 24 9 28 23 3
31 22 10 22 -16 0 19 37 60 62 81 50 160 60 227 29z m-118 -235 c78 -48 122
-49 169 -2 31 31 34 32 34 13 0 -34 -37 -86 -65 -93 -38 -9 -77 1 -137 38 -56
35 -114 42 -185 24 -31 -8 -33 -7 -33 16 0 20 7 26 43 35 64 17 110 9 174 -31z"/>
<path d="M204 339 c-10 -17 13 -36 27 -22 12 12 4 33 -11 33 -5 0 -12 -5 -16
-11z"/>
<path d="M324 339 c-10 -17 13 -36 27 -22 12 12 4 33 -11 33 -5 0 -12 -5 -16
-11z"/>
<path d="M230 270 c0 -11 33 -30 52 -30 19 0 55 27 46 35 -3 3 -15 0 -27 -7
-17 -10 -25 -10 -41 0 -24 15 -30 15 -30 2z"/>
</g>
</svg>
